<?xml version="1.0" encoding="iso-8859-1"?>
<!-- Generator: Adobe Illustrator 18.0.0, SVG Export Plug-In . SVG Version: 6.00 Build 0)  -->
<!DOCTYPE svg PUBLIC "-//W3C//DTD SVG 1.1//EN" "http://www.w3.org/Graphics/SVG/1.1/DTD/svg11.dtd">
<svg version="1.1" id="Capa_1" xmlns="http://www.w3.org/2000/svg" xmlns:xlink="http://www.w3.org/1999/xlink" x="0px" y="0px"
	 viewBox="0 0 297 297" style="enable-background:new 0 0 297 297;" xml:space="preserve">
<path d="M293.555,124.7c4.594-4.594,4.592-12.047-0.001-16.641c-3.769-3.769-9.455-4.442-13.918-2.028l-88.668-88.668
	c2.415-4.462,1.742-10.148-2.028-13.917c-4.594-4.594-12.047-4.595-16.641-0.001c-26.052,26.052-27.999,67.197-5.887,95.537
	L67.23,179.627c-9.508,7.733-23.967,22.384-31.575,31.995L3.669,252.059c-5.398,6.829-4.76,17.791,1.392,23.943l15.937,15.937
	c6.152,6.152,17.114,6.79,23.943,1.392l40.438-31.987c9.611-7.608,24.262-22.066,31.995-31.575l80.645-99.183
	C226.358,152.699,267.504,150.752,293.555,124.7z M187.356,31.185l78.459,78.459c1.532,1.532,1.533,4.012,0.001,5.545
	c-1.532,1.532-4.016,1.534-5.548,0.002l-78.459-78.459c-1.532-1.532-1.529-4.016,0.002-5.548
	C183.344,29.652,185.825,29.653,187.356,31.185z M207.967,108.056l-19.023-19.023c-10.373-10.373-15.073-24.298-14.123-37.896
	l71.042,71.042C232.265,123.128,218.34,118.429,207.967,108.056z"/>
<g>
</g>
<g>
</g>
<g>
</g>
<g>
</g>
<g>
</g>
<g>
</g>
<g>
</g>
<g>
</g>
<g>
</g>
<g>
</g>
<g>
</g>
<g>
</g>
<g>
</g>
<g>
</g>
<g>
</g>
</svg>
